<svg width="184" height="46" viewBox="0 0 184 46" fill="none" xmlns="http://www.w3.org/2000/svg">
<path d="M13.7778 20.236C14.5138 20.236 15.1818 20.128 15.7818 19.912C16.3898 19.696 16.8418 19.484 17.1378 19.276L18.6738 22.324C18.2978 22.644 17.6538 22.968 16.7418 23.296C15.8378 23.624 14.7618 23.788 13.5138 23.788C12.3458 23.788 11.2498 23.584 10.2258 23.176C9.20175 22.768 8.29775 22.196 7.51375 21.46C6.73775 20.716 6.12575 19.848 5.67775 18.856C5.23775 17.856 5.01775 16.772 5.01775 15.604C5.01775 14.436 5.23775 13.352 5.67775 12.352C6.11775 11.344 6.72575 10.468 7.50175 9.724C8.28575 8.98 9.18975 8.404 10.2138 7.996C11.2458 7.58 12.3458 7.372 13.5138 7.372C14.7618 7.372 15.8378 7.536 16.7418 7.864C17.6538 8.192 18.2978 8.516 18.6738 8.836L17.1378 11.884C16.8418 11.668 16.3898 11.456 15.7818 11.248C15.1818 11.032 14.5138 10.924 13.7778 10.924C12.9618 10.924 12.2498 11.052 11.6418 11.308C11.0338 11.556 10.5258 11.9 10.1178 12.34C9.70975 12.78 9.40575 13.276 9.20575 13.828C9.00575 14.38 8.90575 14.96 8.90575 15.568C8.90575 16.184 9.00575 16.772 9.20575 17.332C9.40575 17.884 9.70975 18.38 10.1178 18.82C10.5258 19.26 11.0338 19.608 11.6418 19.864C12.2498 20.112 12.9618 20.236 13.7778 20.236ZM30.1345 13.36C30.8225 13.36 31.4945 13.5 32.1505 13.78C32.8065 14.06 33.3465 14.504 33.7705 15.112C34.1945 15.712 34.4065 16.504 34.4065 17.488V23.5H30.7585V18.088C30.7585 17.384 30.5985 16.856 30.2785 16.504C29.9665 16.144 29.5385 15.964 28.9945 15.964C28.6345 15.964 28.2905 16.06 27.9625 16.252C27.6345 16.436 27.3665 16.7 27.1585 17.044C26.9585 17.38 26.8585 17.768 26.8585 18.208V23.5H23.1985V6.988H26.8585V15.1C26.9465 14.836 27.1425 14.572 27.4465 14.308C27.7585 14.036 28.1465 13.812 28.6105 13.636C29.0825 13.452 29.5905 13.36 30.1345 13.36ZM39.0796 23.5V13.648H42.7276V23.5H39.0796ZM40.9516 11.62C40.3756 11.62 39.8876 11.42 39.4876 11.02C39.0876 10.612 38.8876 10.128 38.8876 9.568C38.8876 9.008 39.0876 8.524 39.4876 8.116C39.8956 7.7 40.3836 7.492 40.9516 7.492C41.3276 7.492 41.6716 7.588 41.9836 7.78C42.2956 7.964 42.5476 8.212 42.7396 8.524C42.9316 8.836 43.0276 9.184 43.0276 9.568C43.0276 10.128 42.8236 10.612 42.4156 11.02C42.0076 11.42 41.5196 11.62 40.9516 11.62ZM52.9808 20.92C53.4368 20.92 53.8128 20.844 54.1088 20.692C54.4048 20.532 54.6048 20.404 54.7088 20.308L56.3768 22.78C56.2488 22.884 56.0288 23.02 55.7168 23.188C55.4048 23.348 55.0128 23.488 54.5408 23.608C54.0768 23.728 53.5448 23.788 52.9448 23.788C51.8168 23.788 50.8248 23.576 49.9688 23.152C49.1128 22.72 48.4448 22.112 47.9648 21.328C47.4928 20.544 47.2568 19.624 47.2568 18.568C47.2568 17.504 47.4928 16.584 47.9648 15.808C48.4448 15.032 49.1128 14.432 49.9688 14.008C50.8248 13.576 51.8168 13.36 52.9448 13.36C53.5368 13.36 54.0648 13.424 54.5288 13.552C55.0008 13.672 55.3968 13.812 55.7168 13.972C56.0368 14.124 56.2608 14.256 56.3888 14.368L54.6848 16.864C54.6288 16.808 54.5248 16.728 54.3728 16.624C54.2288 16.52 54.0408 16.428 53.8088 16.348C53.5768 16.268 53.3008 16.228 52.9808 16.228C52.5888 16.228 52.2208 16.328 51.8768 16.528C51.5408 16.728 51.2688 17.004 51.0608 17.356C50.8528 17.708 50.7488 18.112 50.7488 18.568C50.7488 19.024 50.8528 19.432 51.0608 19.792C51.2688 20.144 51.5408 20.42 51.8768 20.62C52.2208 20.82 52.5888 20.92 52.9808 20.92ZM60.3436 7.66H65.7796C66.6836 7.66 67.5196 7.784 68.2876 8.032C69.0636 8.28 69.6876 8.688 70.1596 9.256C70.6396 9.816 70.8796 10.576 70.8796 11.536C70.8796 12.168 70.7596 12.732 70.5196 13.228C70.2876 13.724 69.9756 14.132 69.5836 14.452C69.1996 14.764 68.7796 14.972 68.3236 15.076C68.7236 15.124 69.1116 15.24 69.4876 15.424C69.8716 15.6 70.2156 15.848 70.5196 16.168C70.8316 16.48 71.0756 16.872 71.2516 17.344C71.4356 17.808 71.5276 18.36 71.5276 19C71.5276 19.888 71.3276 20.672 70.9276 21.352C70.5356 22.024 69.9596 22.552 69.1996 22.936C68.4476 23.312 67.5236 23.5 66.4276 23.5H60.3436V7.66ZM63.9316 20.632H65.5636C66.0756 20.632 66.4916 20.556 66.8116 20.404C67.1396 20.244 67.3796 20.02 67.5316 19.732C67.6836 19.436 67.7596 19.084 67.7596 18.676C67.7596 18.036 67.5596 17.568 67.1596 17.272C66.7676 16.968 66.2156 16.816 65.5036 16.816H63.9316V20.632ZM63.9316 14.008H65.3836C65.8076 14.008 66.1596 13.932 66.4396 13.78C66.7276 13.628 66.9436 13.416 67.0876 13.144C67.2396 12.864 67.3156 12.544 67.3156 12.184C67.3156 11.536 67.1316 11.1 66.7636 10.876C66.3956 10.644 65.8916 10.528 65.2516 10.528H63.9316V14.008ZM81.0818 23.788C80.0018 23.788 79.0418 23.568 78.2018 23.128C77.3698 22.68 76.7138 22.068 76.2338 21.292C75.7618 20.508 75.5258 19.612 75.5258 18.604C75.5258 17.596 75.7618 16.7 76.2338 15.916C76.7138 15.124 77.3698 14.5 78.2018 14.044C79.0418 13.588 80.0018 13.36 81.0818 13.36C82.1618 13.36 83.1138 13.588 83.9378 14.044C84.7618 14.5 85.4058 15.124 85.8698 15.916C86.3338 16.7 86.5658 17.596 86.5658 18.604C86.5658 19.612 86.3338 20.508 85.8698 21.292C85.4058 22.068 84.7618 22.68 83.9378 23.128C83.1138 23.568 82.1618 23.788 81.0818 23.788ZM81.0818 20.788C81.4978 20.788 81.8578 20.696 82.1618 20.512C82.4658 20.328 82.7018 20.068 82.8698 19.732C83.0378 19.396 83.1218 19.016 83.1218 18.592C83.1218 18.16 83.0378 17.776 82.8698 17.44C82.7018 17.104 82.4658 16.84 82.1618 16.648C81.8578 16.456 81.4978 16.36 81.0818 16.36C80.6658 16.36 80.3018 16.456 79.9898 16.648C79.6858 16.84 79.4458 17.104 79.2698 17.44C79.1018 17.776 79.0178 18.16 79.0178 18.592C79.0178 19.016 79.1018 19.396 79.2698 19.732C79.4458 20.068 79.6858 20.328 79.9898 20.512C80.3018 20.696 80.6658 20.788 81.0818 20.788ZM94.3203 18.208C94.3203 18.992 94.4683 19.62 94.7643 20.092C95.0603 20.556 95.5563 20.788 96.2523 20.788C96.9643 20.788 97.4643 20.556 97.7523 20.092C98.0483 19.62 98.1963 18.992 98.1963 18.208V13.648H101.796V18.592C101.796 19.648 101.576 20.568 101.136 21.352C100.704 22.128 100.076 22.728 99.2523 23.152C98.4283 23.576 97.4283 23.788 96.2523 23.788C95.0843 23.788 94.0883 23.576 93.2643 23.152C92.4403 22.728 91.8123 22.128 91.3803 21.352C90.9483 20.568 90.7323 19.648 90.7323 18.592V13.648H94.3203V18.208ZM105.479 13.648H107.159V9.604H110.771V13.648H112.979V16.648H110.771V19.396C110.771 19.804 110.831 20.136 110.951 20.392C111.071 20.64 111.291 20.764 111.611 20.764C111.827 20.764 112.011 20.716 112.163 20.62C112.315 20.524 112.407 20.46 112.439 20.428L113.687 23.02C113.631 23.068 113.455 23.156 113.159 23.284C112.871 23.412 112.503 23.528 112.055 23.632C111.607 23.736 111.107 23.788 110.555 23.788C109.571 23.788 108.759 23.512 108.119 22.96C107.479 22.4 107.159 21.54 107.159 20.38V16.648H105.479V13.648ZM117.558 23.5V13.648H121.206V23.5H117.558ZM119.43 11.62C118.854 11.62 118.366 11.42 117.966 11.02C117.566 10.612 117.366 10.128 117.366 9.568C117.366 9.008 117.566 8.524 117.966 8.116C118.374 7.7 118.862 7.492 119.43 7.492C119.806 7.492 120.15 7.588 120.462 7.78C120.774 7.964 121.026 8.212 121.218 8.524C121.41 8.836 121.506 9.184 121.506 9.568C121.506 10.128 121.302 10.612 120.894 11.02C120.486 11.42 119.998 11.62 119.43 11.62ZM134.111 28.492V21.904C134.047 22.072 133.875 22.308 133.595 22.612C133.315 22.908 132.931 23.18 132.443 23.428C131.963 23.668 131.375 23.788 130.679 23.788C129.727 23.788 128.895 23.556 128.183 23.092C127.471 22.62 126.919 21.992 126.527 21.208C126.135 20.416 125.939 19.54 125.939 18.58C125.939 17.62 126.123 16.748 126.491 15.964C126.859 15.172 127.387 14.54 128.075 14.068C128.763 13.596 129.583 13.36 130.535 13.36C131.167 13.36 131.727 13.46 132.215 13.66C132.711 13.852 133.115 14.084 133.427 14.356C133.747 14.62 133.963 14.864 134.075 15.088V13.648H137.711V28.492H134.111ZM131.759 20.92C132.207 20.92 132.603 20.82 132.947 20.62C133.291 20.42 133.563 20.144 133.763 19.792C133.971 19.432 134.075 19.028 134.075 18.58C134.075 18.132 133.971 17.732 133.763 17.38C133.563 17.02 133.291 16.74 132.947 16.54C132.603 16.332 132.207 16.228 131.759 16.228C131.343 16.228 130.963 16.332 130.619 16.54C130.283 16.74 130.015 17.02 129.815 17.38C129.615 17.732 129.515 18.132 129.515 18.58C129.515 19.028 129.615 19.432 129.815 19.792C130.015 20.144 130.283 20.42 130.619 20.62C130.963 20.82 131.343 20.92 131.759 20.92ZM145.569 18.208C145.569 18.992 145.717 19.62 146.013 20.092C146.309 20.556 146.805 20.788 147.501 20.788C148.213 20.788 148.713 20.556 149.001 20.092C149.297 19.62 149.445 18.992 149.445 18.208V13.648H153.045V18.592C153.045 19.648 152.825 20.568 152.385 21.352C151.953 22.128 151.325 22.728 150.501 23.152C149.677 23.576 148.677 23.788 147.501 23.788C146.333 23.788 145.337 23.576 144.513 23.152C143.689 22.728 143.061 22.128 142.629 21.352C142.197 20.568 141.981 19.648 141.981 18.592V13.648H145.569V18.208ZM160.565 19.348C160.589 19.7 160.701 20.012 160.901 20.284C161.101 20.556 161.377 20.772 161.729 20.932C162.089 21.084 162.513 21.16 163.001 21.16C163.465 21.16 163.881 21.112 164.249 21.016C164.625 20.92 164.949 20.8 165.221 20.656C165.501 20.512 165.717 20.364 165.869 20.212L167.285 22.468C167.085 22.684 166.801 22.896 166.433 23.104C166.073 23.304 165.597 23.468 165.005 23.596C164.413 23.724 163.665 23.788 162.761 23.788C161.673 23.788 160.705 23.584 159.857 23.176C159.009 22.768 158.341 22.168 157.853 21.376C157.365 20.584 157.121 19.616 157.121 18.472C157.121 17.512 157.329 16.648 157.745 15.88C158.169 15.104 158.781 14.492 159.581 14.044C160.381 13.588 161.345 13.36 162.473 13.36C163.545 13.36 164.473 13.556 165.257 13.948C166.049 14.34 166.657 14.924 167.081 15.7C167.513 16.468 167.729 17.428 167.729 18.58C167.729 18.644 167.725 18.772 167.717 18.964C167.717 19.156 167.709 19.284 167.693 19.348H160.565ZM164.297 17.44C164.289 17.184 164.221 16.932 164.093 16.684C163.965 16.428 163.773 16.22 163.517 16.06C163.261 15.892 162.933 15.808 162.533 15.808C162.133 15.808 161.793 15.888 161.513 16.048C161.241 16.2 161.033 16.4 160.889 16.648C160.745 16.896 160.665 17.16 160.649 17.44H164.297Z" fill="#404040"/>
<mask id="path-2-inside-1_8816_1315" fill="white">
<path fill-rule="evenodd" clip-rule="evenodd" d="M176.5 23.5C179.261 23.5 181.5 21.2614 181.5 18.5C181.5 15.7386 179.261 13.5 176.5 13.5C173.739 13.5 171.5 15.7386 171.5 18.5C171.5 20.7156 172.941 22.5946 174.937 23.2509C174.959 23.1707 174.982 23.0916 175.007 23.0137C174.426 22.3377 174.425 21.6804 174.425 21.3496L174.425 21.3493C174.428 20.456 174.696 19.6358 175.381 19.0416C176.063 18.4501 177.138 18.0996 178.717 18.0996H180.11C180.18 18.0996 180.235 18.1556 180.235 18.2246V18.9191V18.9262L180.235 18.9262C180.147 20.4566 179.726 21.5323 179.034 22.2251C178.34 22.9192 177.392 23.2107 176.291 23.2107H175.244C175.233 23.2107 175.221 23.209 175.209 23.2057C175.198 23.2445 175.187 23.2836 175.177 23.323C175.598 23.4384 176.042 23.5 176.5 23.5ZM175.701 22.1351C175.533 22.3872 175.397 22.6609 175.291 22.9549L175.297 22.9607H176.291C177.349 22.9607 178.224 22.6814 178.857 22.0484C179.49 21.4146 179.899 20.4081 179.985 18.9155V18.3496H178.717C177.17 18.3496 176.164 18.6936 175.545 19.2305C174.929 19.7647 174.677 20.507 174.675 21.3498V21.3506C174.675 21.6439 174.675 22.1735 175.106 22.7386C175.21 22.4764 175.338 22.2285 175.493 21.9964C175.898 21.3889 176.481 20.8968 177.282 20.5409C177.345 20.5129 177.419 20.5413 177.447 20.6044C177.475 20.6675 177.447 20.7414 177.383 20.7694C176.622 21.108 176.077 21.5707 175.701 22.1351Z"/>
</mask>
<path fill-rule="evenodd" clip-rule="evenodd" d="M176.5 23.5C179.261 23.5 181.5 21.2614 181.5 18.5C181.5 15.7386 179.261 13.5 176.5 13.5C173.739 13.5 171.5 15.7386 171.5 18.5C171.5 20.7156 172.941 22.5946 174.937 23.2509C174.959 23.1707 174.982 23.0916 175.007 23.0137C174.426 22.3377 174.425 21.6804 174.425 21.3496L174.425 21.3493C174.428 20.456 174.696 19.6358 175.381 19.0416C176.063 18.4501 177.138 18.0996 178.717 18.0996H180.11C180.18 18.0996 180.235 18.1556 180.235 18.2246V18.9191V18.9262L180.235 18.9262C180.147 20.4566 179.726 21.5323 179.034 22.2251C178.34 22.9192 177.392 23.2107 176.291 23.2107H175.244C175.233 23.2107 175.221 23.209 175.209 23.2057C175.198 23.2445 175.187 23.2836 175.177 23.323C175.598 23.4384 176.042 23.5 176.5 23.5ZM175.701 22.1351C175.533 22.3872 175.397 22.6609 175.291 22.9549L175.297 22.9607H176.291C177.349 22.9607 178.224 22.6814 178.857 22.0484C179.49 21.4146 179.899 20.4081 179.985 18.9155V18.3496H178.717C177.17 18.3496 176.164 18.6936 175.545 19.2305C174.929 19.7647 174.677 20.507 174.675 21.3498V21.3506C174.675 21.6439 174.675 22.1735 175.106 22.7386C175.21 22.4764 175.338 22.2285 175.493 21.9964C175.898 21.3889 176.481 20.8968 177.282 20.5409C177.345 20.5129 177.419 20.5413 177.447 20.6044C177.475 20.6675 177.447 20.7414 177.383 20.7694C176.622 21.108 176.077 21.5707 175.701 22.1351Z" fill="#748C70"/>
<path d="M174.937 23.2509L174.859 23.4884L175.11 23.5709L175.179 23.3156L174.937 23.2509ZM175.007 23.0137L175.245 23.0906L175.288 22.957L175.197 22.8506L175.007 23.0137ZM174.425 21.3496L174.175 21.3493V21.3496H174.425ZM174.425 21.3493L174.175 21.3486L174.175 21.3489L174.425 21.3493ZM175.381 19.0416L175.545 19.2305L175.381 19.0416ZM180.235 18.9262L180.222 19.1758L180.485 19.1905V18.9262H180.235ZM180.235 18.9262L180.249 18.6766L180 18.6628L179.986 18.9119L180.235 18.9262ZM179.034 22.2251L179.21 22.4019L179.21 22.4019L179.034 22.2251ZM175.209 23.2057L175.28 22.9657L175.04 22.8957L174.97 23.1352L175.209 23.2057ZM175.177 23.323L174.935 23.2587L174.871 23.4986L175.111 23.5641L175.177 23.323ZM175.291 22.9549L175.056 22.8701L175.003 23.0162L175.111 23.1281L175.291 22.9549ZM175.701 22.1351L175.493 21.9964L175.701 22.1351ZM175.297 22.9607L175.117 23.1339L175.19 23.2107H175.297V22.9607ZM178.857 22.0484L179.034 22.2251L179.034 22.2251L178.857 22.0484ZM179.985 18.9155L180.235 18.9299L180.235 18.9227V18.9155H179.985ZM179.985 18.3496H180.235V18.0996H179.985V18.3496ZM175.545 19.2305L175.381 19.0416L175.381 19.0416L175.545 19.2305ZM174.675 21.3498L174.425 21.3491V21.3498H174.675ZM174.675 21.3506L174.925 21.3506V21.3506H174.675ZM175.106 22.7386L174.907 22.8902L175.175 23.2419L175.338 22.8308L175.106 22.7386ZM175.493 21.9964L175.285 21.8577L175.285 21.8577L175.493 21.9964ZM177.282 20.5409L177.383 20.7694L177.383 20.7694L177.282 20.5409ZM177.383 20.7694L177.282 20.5409L177.282 20.5409L177.383 20.7694ZM181.25 18.5C181.25 21.1234 179.123 23.25 176.5 23.25V23.75C179.399 23.75 181.75 21.3995 181.75 18.5H181.25ZM176.5 13.75C179.123 13.75 181.25 15.8766 181.25 18.5H181.75C181.75 15.6005 179.399 13.25 176.5 13.25V13.75ZM171.75 18.5C171.75 15.8766 173.877 13.75 176.5 13.75V13.25C173.601 13.25 171.25 15.6005 171.25 18.5H171.75ZM175.015 23.0134C173.119 22.3899 171.75 20.6044 171.75 18.5H171.25C171.25 20.8268 172.763 22.7994 174.859 23.4884L175.015 23.0134ZM175.179 23.3156C175.199 23.2394 175.221 23.1644 175.245 23.0906L174.769 22.9367C174.743 23.0189 174.718 23.102 174.696 23.1862L175.179 23.3156ZM175.197 22.8506C174.676 22.2451 174.675 21.6651 174.675 21.3496H174.175C174.175 21.6957 174.175 22.4303 174.818 23.1767L175.197 22.8506ZM174.675 21.3499L174.675 21.3496L174.175 21.3489L174.175 21.3493L174.675 21.3499ZM174.675 21.35C174.677 20.5071 174.929 19.7647 175.545 19.2305L175.218 18.8528C174.464 19.507 174.178 20.4049 174.175 21.3486L174.675 21.35ZM175.545 19.2305C176.164 18.6936 177.17 18.3496 178.717 18.3496V17.8496C177.106 17.8496 175.962 18.2066 175.218 18.8528L175.545 19.2305ZM178.717 18.3496H180.11V17.8496H178.717V18.3496ZM180.11 18.3496C180.041 18.3496 179.985 18.2936 179.985 18.2246H180.485C180.485 18.0175 180.318 17.8496 180.11 17.8496V18.3496ZM179.985 18.2246V18.9191H180.485V18.2246H179.985ZM179.985 18.9191V18.9262H180.485V18.9191H179.985ZM180.249 18.6766L180.249 18.6766L180.221 19.1758L180.222 19.1758L180.249 18.6766ZM179.986 18.9119C179.9 20.4066 179.491 21.4141 178.857 22.0484L179.21 22.4019C179.962 21.6505 180.395 20.5066 180.485 18.9405L179.986 18.9119ZM178.857 22.0484C178.224 22.6814 177.349 22.9607 176.291 22.9607V23.4607C177.435 23.4607 178.456 23.1569 179.21 22.4019L178.857 22.0484ZM176.291 22.9607H175.244V23.4607H176.291V22.9607ZM175.244 22.9607C175.256 22.9607 175.268 22.9624 175.28 22.9657L175.139 23.4457C175.173 23.4556 175.209 23.4607 175.244 23.4607V22.9607ZM174.97 23.1352C174.958 23.1761 174.946 23.2172 174.935 23.2587L175.418 23.3873C175.428 23.3499 175.438 23.3129 175.449 23.2762L174.97 23.1352ZM176.5 23.25C176.064 23.25 175.643 23.1914 175.243 23.0819L175.111 23.5641C175.553 23.6853 176.019 23.75 176.5 23.75V23.25ZM175.526 23.0396C175.626 22.7631 175.753 22.5077 175.909 22.2738L175.493 21.9964C175.312 22.2667 175.168 22.5587 175.056 22.8701L175.526 23.0396ZM175.477 22.7875L175.472 22.7816L175.111 23.1281L175.117 23.1339L175.477 22.7875ZM176.291 22.7107H175.297V23.2107H176.291V22.7107ZM178.68 21.8716C178.108 22.4437 177.306 22.7107 176.291 22.7107V23.2107C177.392 23.2107 178.34 22.9192 179.034 22.2251L178.68 21.8716ZM179.736 18.901C179.652 20.358 179.255 21.2964 178.68 21.8716L179.034 22.2251C179.726 21.5329 180.147 20.4583 180.235 18.9299L179.736 18.901ZM179.735 18.3496V18.9155H180.235V18.3496H179.735ZM178.717 18.5996H179.985V18.0996H178.717V18.5996ZM175.709 19.4193C176.265 18.937 177.202 18.5996 178.717 18.5996V18.0996C177.138 18.0996 176.063 18.4501 175.381 19.0416L175.709 19.4193ZM174.925 21.3505C174.927 20.5583 175.162 19.8937 175.709 19.4193L175.381 19.0416C174.697 19.6358 174.428 20.4558 174.425 21.3491L174.925 21.3505ZM174.925 21.3506V21.3498H174.425V21.3506H174.925ZM175.305 22.5871C174.926 22.0902 174.925 21.6316 174.925 21.3506L174.425 21.3506C174.425 21.6562 174.424 22.2568 174.907 22.8902L175.305 22.5871ZM175.285 21.8577C175.119 22.1053 174.984 22.369 174.873 22.6464L175.338 22.8308C175.436 22.5838 175.556 22.3516 175.701 22.1351L175.285 21.8577ZM177.18 20.3125C176.341 20.6857 175.718 21.2071 175.285 21.8577L175.701 22.1351C176.077 21.5707 176.622 21.108 177.383 20.7694L177.18 20.3125ZM177.675 20.5029C177.591 20.3136 177.37 20.2284 177.18 20.3125L177.383 20.7694C177.32 20.7974 177.246 20.769 177.218 20.7059L177.675 20.5029ZM177.485 20.9978C177.674 20.9137 177.759 20.6921 177.675 20.5029L177.218 20.7059C177.19 20.6428 177.219 20.569 177.282 20.5409L177.485 20.9978ZM175.909 22.2738C176.256 21.7525 176.762 21.3191 177.485 20.9978L177.282 20.5409C176.481 20.8968 175.898 21.3889 175.493 21.9964L175.909 22.2738Z" fill="white" mask="url(#path-2-inside-1_8816_1315)"/>
<path d="M56.6695 35.425L55.6245 38.5H54.7245L53.6095 34.395H54.5345L55.2795 37.55L56.3095 34.475H57.0295L58.0495 37.55L58.7995 34.395H59.7295L58.6145 38.5H57.7145L56.6695 35.425ZM63.4855 38.62C63.0622 38.62 62.6855 38.525 62.3555 38.335C62.0289 38.145 61.7722 37.8883 61.5855 37.565C61.3989 37.2383 61.3055 36.87 61.3055 36.46C61.3055 36.05 61.3989 35.68 61.5855 35.35C61.7722 35.02 62.0289 34.7583 62.3555 34.565C62.6855 34.3717 63.0622 34.275 63.4855 34.275C63.9055 34.275 64.2772 34.3717 64.6005 34.565C64.9272 34.7583 65.1822 35.02 65.3655 35.35C65.5489 35.68 65.6405 36.05 65.6405 36.46C65.6405 36.87 65.5489 37.2383 65.3655 37.565C65.1822 37.8883 64.9272 38.145 64.6005 38.335C64.2772 38.525 63.9055 38.62 63.4855 38.62ZM63.4855 37.875C63.7522 37.875 63.9839 37.8133 64.1805 37.69C64.3805 37.5667 64.5355 37.3983 64.6455 37.185C64.7555 36.9683 64.8105 36.725 64.8105 36.455C64.8105 36.185 64.7555 35.9417 64.6455 35.725C64.5355 35.5083 64.3805 35.3367 64.1805 35.21C63.9839 35.0833 63.7522 35.02 63.4855 35.02C63.2155 35.02 62.9805 35.0833 62.7805 35.21C62.5805 35.3367 62.4239 35.5083 62.3105 35.725C62.2005 35.9417 62.1455 36.185 62.1455 36.455C62.1455 36.725 62.2005 36.9683 62.3105 37.185C62.4239 37.3983 62.5805 37.5667 62.7805 37.69C62.9805 37.8133 63.2155 37.875 63.4855 37.875ZM72.5301 34.275C72.8334 34.275 73.0934 34.3417 73.3101 34.475C73.5267 34.605 73.6917 34.805 73.8051 35.075C73.9217 35.345 73.9801 35.69 73.9801 36.11V38.5H73.1201V36.285C73.1201 35.8417 73.0584 35.5083 72.9351 35.285C72.8117 35.0617 72.5867 34.95 72.2601 34.95C72.0867 34.95 71.9201 34.9983 71.7601 35.095C71.6034 35.1883 71.4734 35.3333 71.3701 35.53C71.2701 35.7267 71.2201 35.9783 71.2201 36.285V38.5H70.4101V36.285C70.4101 35.8417 70.3334 35.5083 70.1801 35.285C70.0267 35.0617 69.8117 34.95 69.5351 34.95C69.3584 34.95 69.1917 34.9967 69.0351 35.09C68.8817 35.18 68.7567 35.3233 68.6601 35.52C68.5634 35.7167 68.5151 35.9717 68.5151 36.285V38.5H67.6501V34.395H68.5151V35.025C68.5517 34.9217 68.6301 34.8117 68.7501 34.695C68.8734 34.5783 69.0301 34.48 69.2201 34.4C69.4134 34.3167 69.6284 34.275 69.8651 34.275C70.1117 34.275 70.3184 34.325 70.4851 34.425C70.6517 34.525 70.7834 34.6483 70.8801 34.795C70.9767 34.9383 71.0434 35.0767 71.0801 35.21C71.1267 35.0667 71.2167 34.9233 71.3501 34.78C71.4834 34.6333 71.6517 34.5133 71.8551 34.42C72.0584 34.3233 72.2834 34.275 72.5301 34.275ZM76.7282 36.625C76.7315 36.8717 76.7849 37.0967 76.8882 37.3C76.9915 37.5033 77.1449 37.665 77.3482 37.785C77.5549 37.905 77.8082 37.965 78.1082 37.965C78.3615 37.965 78.5765 37.9283 78.7532 37.855C78.9332 37.7783 79.0799 37.6883 79.1932 37.585C79.3065 37.4783 79.3882 37.3833 79.4382 37.3L79.8632 37.825C79.7532 37.985 79.6182 38.125 79.4582 38.245C79.3015 38.365 79.1099 38.4567 78.8832 38.52C78.6565 38.5867 78.3799 38.62 78.0532 38.62C77.6132 38.62 77.2315 38.5267 76.9082 38.34C76.5882 38.15 76.3415 37.8883 76.1682 37.555C75.9949 37.2183 75.9082 36.8333 75.9082 36.4C75.9082 36 75.9899 35.64 76.1532 35.32C76.3165 34.9967 76.5532 34.7417 76.8632 34.555C77.1765 34.3683 77.5532 34.275 77.9932 34.275C78.3965 34.275 78.7465 34.36 79.0432 34.53C79.3432 34.6967 79.5749 34.9333 79.7382 35.24C79.9049 35.5467 79.9882 35.9133 79.9882 36.34C79.9882 36.3667 79.9865 36.415 79.9832 36.485C79.9799 36.5517 79.9765 36.5983 79.9732 36.625H76.7282ZM79.1582 35.97C79.1549 35.8333 79.1149 35.6833 79.0382 35.52C78.9649 35.3567 78.8449 35.2167 78.6782 35.1C78.5115 34.9833 78.2865 34.925 78.0032 34.925C77.7099 34.925 77.4732 34.9817 77.2932 35.095C77.1165 35.2083 76.9865 35.3467 76.9032 35.51C76.8199 35.67 76.7715 35.8233 76.7582 35.97H79.1582ZM84.2438 34.275C84.5138 34.275 84.7755 34.3317 85.0288 34.445C85.2855 34.5583 85.4955 34.7383 85.6588 34.985C85.8255 35.2283 85.9088 35.5467 85.9088 35.94V38.5H85.0288V36.11C85.0288 35.7033 84.9338 35.4083 84.7438 35.225C84.5538 35.0383 84.3088 34.945 84.0088 34.945C83.8122 34.945 83.6222 35.0017 83.4388 35.115C83.2588 35.225 83.1105 35.3783 82.9938 35.575C82.8772 35.7683 82.8188 35.9883 82.8188 36.235V38.5H81.9488V34.395H82.8188V35.125C82.8488 35.0117 82.9305 34.8883 83.0638 34.755C83.1972 34.6217 83.3672 34.5083 83.5738 34.415C83.7805 34.3217 84.0038 34.275 84.2438 34.275ZM93.4717 37.9C93.7317 37.9 93.9417 37.8583 94.1017 37.775C94.2617 37.6917 94.3617 37.6317 94.4017 37.595L94.8267 38.22C94.7934 38.25 94.7134 38.2983 94.5867 38.365C94.4634 38.4283 94.3034 38.4867 94.1067 38.54C93.9134 38.5933 93.6934 38.62 93.4467 38.62C93.0701 38.62 92.7201 38.5367 92.3967 38.37C92.0734 38.2 91.8117 37.9533 91.6117 37.63C91.4151 37.3067 91.3167 36.9117 91.3167 36.445C91.3167 35.975 91.4151 35.58 91.6117 35.26C91.8117 34.9367 92.0734 34.6917 92.3967 34.525C92.7201 34.3583 93.0701 34.275 93.4467 34.275C93.6901 34.275 93.9067 34.305 94.0967 34.365C94.2867 34.4217 94.4434 34.485 94.5667 34.555C94.6901 34.625 94.7717 34.6783 94.8117 34.715L94.3817 35.34C94.3551 35.3133 94.3034 35.2733 94.2267 35.22C94.1534 35.1633 94.0534 35.1117 93.9267 35.065C93.8001 35.0183 93.6484 34.995 93.4717 34.995C93.2584 34.995 93.0501 35.0533 92.8467 35.17C92.6467 35.2833 92.4817 35.4483 92.3517 35.665C92.2217 35.8817 92.1567 36.1417 92.1567 36.445C92.1567 36.7483 92.2217 37.01 92.3517 37.23C92.4817 37.4467 92.6467 37.6133 92.8467 37.73C93.0501 37.8433 93.2584 37.9 93.4717 37.9ZM97.5921 38.5H96.7171V31.62H97.5921V38.5ZM101.745 38.62C101.322 38.62 100.945 38.525 100.615 38.335C100.289 38.145 100.032 37.8883 99.8453 37.565C99.6586 37.2383 99.5653 36.87 99.5653 36.46C99.5653 36.05 99.6586 35.68 99.8453 35.35C100.032 35.02 100.289 34.7583 100.615 34.565C100.945 34.3717 101.322 34.275 101.745 34.275C102.165 34.275 102.537 34.3717 102.86 34.565C103.187 34.7583 103.442 35.02 103.625 35.35C103.809 35.68 103.9 36.05 103.9 36.46C103.9 36.87 103.809 37.2383 103.625 37.565C103.442 37.8883 103.187 38.145 102.86 38.335C102.537 38.525 102.165 38.62 101.745 38.62ZM101.745 37.875C102.012 37.875 102.244 37.8133 102.44 37.69C102.64 37.5667 102.795 37.3983 102.905 37.185C103.015 36.9683 103.07 36.725 103.07 36.455C103.07 36.185 103.015 35.9417 102.905 35.725C102.795 35.5083 102.64 35.3367 102.44 35.21C102.244 35.0833 102.012 35.02 101.745 35.02C101.475 35.02 101.24 35.0833 101.04 35.21C100.84 35.3367 100.684 35.5083 100.57 35.725C100.46 35.9417 100.405 36.185 100.405 36.455C100.405 36.725 100.46 36.9683 100.57 37.185C100.684 37.3983 100.84 37.5667 101.04 37.69C101.24 37.8133 101.475 37.875 101.745 37.875ZM105.515 34.395H106.32V32.71H107.185V34.395H108.24V35.14H107.185V37.17C107.185 37.41 107.227 37.5867 107.31 37.7C107.397 37.8133 107.512 37.87 107.655 37.87C107.782 37.87 107.88 37.8467 107.95 37.8C108.02 37.7533 108.062 37.7217 108.075 37.705L108.42 38.345C108.4 38.3617 108.347 38.3933 108.26 38.44C108.173 38.4867 108.062 38.5283 107.925 38.565C107.788 38.6017 107.628 38.62 107.445 38.62C107.125 38.62 106.857 38.5233 106.64 38.33C106.427 38.1333 106.32 37.8233 106.32 37.4V35.14H105.515V34.395ZM112.5 34.275C112.77 34.275 113.032 34.3317 113.285 34.445C113.542 34.5583 113.752 34.7383 113.915 34.985C114.082 35.2283 114.165 35.5467 114.165 35.94V38.5H113.285V36.11C113.285 35.7033 113.192 35.4083 113.005 35.225C112.822 35.0383 112.58 34.945 112.28 34.945C112.08 34.945 111.889 35.0017 111.705 35.115C111.522 35.225 111.37 35.3783 111.25 35.575C111.134 35.7683 111.075 35.9883 111.075 36.235V38.5H110.195V31.62H111.075V35.125C111.105 35.0117 111.185 34.8883 111.315 34.755C111.449 34.6217 111.619 34.5083 111.825 34.415C112.032 34.3217 112.257 34.275 112.5 34.275ZM116.436 38.5V34.395H117.306V38.5H116.436ZM116.881 32.99C116.725 32.99 116.59 32.935 116.476 32.825C116.366 32.7117 116.311 32.5767 116.311 32.42C116.311 32.2633 116.366 32.1283 116.476 32.015C116.59 31.9017 116.725 31.845 116.881 31.845C116.985 31.845 117.08 31.8717 117.166 31.925C117.256 31.9783 117.328 32.0483 117.381 32.135C117.435 32.2183 117.461 32.3133 117.461 32.42C117.461 32.5767 117.405 32.7117 117.291 32.825C117.178 32.935 117.041 32.99 116.881 32.99ZM121.931 34.275C122.201 34.275 122.463 34.3317 122.716 34.445C122.973 34.5583 123.183 34.7383 123.346 34.985C123.513 35.2283 123.596 35.5467 123.596 35.94V38.5H122.716V36.11C122.716 35.7033 122.621 35.4083 122.431 35.225C122.241 35.0383 121.996 34.945 121.696 34.945C121.5 34.945 121.31 35.0017 121.126 35.115C120.946 35.225 120.798 35.3783 120.681 35.575C120.565 35.7683 120.506 35.9883 120.506 36.235V38.5H119.636V34.395H120.506V35.125C120.536 35.0117 120.618 34.8883 120.751 34.755C120.885 34.6217 121.055 34.5083 121.261 34.415C121.468 34.3217 121.691 34.275 121.931 34.275ZM127.694 40.695C127.371 40.695 127.077 40.6617 126.814 40.595C126.554 40.5283 126.326 40.4333 126.129 40.31C125.936 40.19 125.781 40.0483 125.664 39.885L126.234 39.34C126.297 39.4267 126.382 39.5183 126.489 39.615C126.599 39.715 126.747 39.8 126.934 39.87C127.121 39.94 127.364 39.975 127.664 39.975C127.957 39.975 128.206 39.9117 128.409 39.785C128.612 39.6617 128.767 39.4933 128.874 39.28C128.981 39.0667 129.034 38.8267 129.034 38.56V38.425H129.884V38.615C129.884 39.0683 129.786 39.4483 129.589 39.755C129.396 40.065 129.134 40.2983 128.804 40.455C128.474 40.615 128.104 40.695 127.694 40.695ZM129.034 38.5V37.7C129.007 37.7833 128.929 37.8983 128.799 38.045C128.672 38.1917 128.497 38.325 128.274 38.445C128.054 38.5617 127.794 38.62 127.494 38.62C127.114 38.62 126.769 38.53 126.459 38.35C126.152 38.17 125.907 37.9183 125.724 37.595C125.544 37.2683 125.454 36.8867 125.454 36.45C125.454 36.0133 125.544 35.6333 125.724 35.31C125.907 34.9833 126.152 34.73 126.459 34.55C126.769 34.3667 127.114 34.275 127.494 34.275C127.791 34.275 128.047 34.3283 128.264 34.435C128.484 34.5417 128.659 34.665 128.789 34.805C128.922 34.945 129.001 35.065 129.024 35.165V34.395H129.884V38.5H129.034ZM126.314 36.45C126.314 36.7467 126.379 37.0033 126.509 37.22C126.639 37.4367 126.807 37.605 127.014 37.725C127.224 37.8417 127.447 37.9 127.684 37.9C127.937 37.9 128.164 37.84 128.364 37.72C128.564 37.6 128.722 37.4317 128.839 37.215C128.956 36.995 129.014 36.74 129.014 36.45C129.014 36.16 128.956 35.9067 128.839 35.69C128.722 35.47 128.564 35.3 128.364 35.18C128.164 35.0567 127.937 34.995 127.684 34.995C127.447 34.995 127.224 35.055 127.014 35.175C126.807 35.295 126.639 35.4633 126.509 35.68C126.379 35.8967 126.314 36.1533 126.314 36.45Z" fill="#404040"/>
</svg>
